<?xml version="1.0" encoding="utf-8"?>
<!-- Generator: Adobe Illustrator 22.0.1, SVG Export Plug-In . SVG Version: 6.00 Build 0)  -->
<svg version="1.1" id="Слой_1" xmlns="http://www.w3.org/2000/svg" xmlns:xlink="http://www.w3.org/1999/xlink" x="0px" y="0px"
	 viewBox="0 0 306 209" style="enable-background:new 0 0 306 209;" xml:space="preserve">
<style type="text/css">
	.st0{fill:#FFFFFF;stroke:#000000;stroke-miterlimit:10;}
</style>
<g transform="translate(0.000000,209.000000) scale(0.100000,-0.100000)">
	<path class="st0" d="M75,2028c-3-7-4-211-3-453l3-440h110h110l3,158l3,159l77-94c42-52,91-112,109-134c17-21,77-95,133-164
		s152-187,212-263l111-137l1011,2l1011,3v135v135l-982,5l-982,5l-265,322c-146,177-266,327-266,333c0,5,62,85,138,177
		c154,189,192,237,192,246c0,4-60,7-132,7l-133-1l-115-158l-115-159l-5,161l-5,162l-108,3C107,2040,78,2037,75,2028z"/>
	<path class="st0" d="M940,1585v-455h115h115v455v455h-115H940V1585z"/>
	<path class="st0" d="M1290,1586v-456h110h110v170v170h24c20,0,32-17,81-112c32-62,72-139,89-170l30-58h134c104,0,132,3,126,13
		c-23,39-168,272-192,308l-29,42l41,32c25,19,52,53,69,88c24,48,28,69,28,140c1,131-40,205-138,254c-57,27-61,28-270,31l-213,4V1586
		z M1666,1826c18-20,24-39,24-74c-1-76-42-112-129-112h-51v111v111l66-4C1634,1854,1646,1850,1666,1826z"/>
	<path class="st0" d="M2042,1588l3-453l118-3l117-3v456v455h-120h-120L2042,1588z"/>
	<path class="st0" d="M2420,1585v-455l273,2l272,3v90v90l-162,3l-163,2v360v360h-110h-110V1585z"/>
	<path class="st0" d="M1800,549c-91-37-130-153-75-226c15-18,47-42,73-54c80-35,90-41,95-59c8-32-16-65-50-68c-25-3-36,3-60,33
		l-30,36l-36-35c-20-19-37-39-37-43c0-14,73-78,103-91c58-25,138-10,191,37c31,27,49,73,49,127c0,74-28,108-120,150
		c-69,31-74,36-71,62c3,23,8,27,39,30c23,2,40-2,49-12c18-23,36-20,59,10c34,43,27,62-31,89C1893,561,1842,566,1800,549z"/>
	<path class="st0" d="M956,538c-12-40-15-131-9-304l6-195l56,3l56,3l3,253l2,252h-55C979,550,958,546,956,538z"/>
	<path class="st0" d="M1164,537c-2-7-3-120-2-252l3-240l39-3c22-2,50-1,63,2c23,6,23,8,23,142v135l91-108c158-188,154-185,197-181
		l37,3v255v255h-55h-55l-5-144l-5-143l-123,146c-120,143-124,146-163,146C1186,550,1167,545,1164,537z"/>
	<path class="st0" d="M2525,541c-3-5,30-67,72-138l78-128l5-115l5-115l34-3c19-2,44-1,57,2c23,6,24,9,24,116v109l81,132
		c89,145,89,149,8,149c-55,0-66-8-113-87c-21-35-39-63-42-63c-2,0-19,31-38,69s-42,71-51,75C2620,553,2532,551,2525,541z"/>
	<path class="st0" d="M2090,296c0-270-4-256,68-256c20,0,42,4,49,8c7,5,13,39,15,85l3,77l46-58c91-112,92-112,156-112
		c99,0,101-5-61,189l-58,71l91,112c50,62,91,116,91,121c0,4-31,7-70,7h-69l-66-87l-65-86v86v87h-65h-65V296z"/>
</g>
</svg>
